<svg xmlns="http://www.w3.org/2000/svg" version="1.1" xmlns:xlink="http://www.w3.org/1999/xlink" xmlns:svgjs="http://svgjs.dev/svgjs" width="1500" height="1500" viewBox="0 0 1500 1500"><rect width="1500" height="1500" fill="#ffffff"></rect><g transform="matrix(0.6666666666666666,0,0,0.6666666666666666,248.48613735806157,269.78924731182803)"><svg viewBox="0 0 259 248" data-background-color="#ffffff" preserveAspectRatio="xMidYMid meet" height="1436" width="1500" xmlns="http://www.w3.org/2000/svg" xmlns:xlink="http://www.w3.org/1999/xlink"><g id="tight-bounds" transform="matrix(1,0,0,1,0.3920904242620509,0.4000000000000057)"><svg viewBox="0 0 258.2158191514759 247.2" height="247.2" width="258.2158191514759"><g><svg viewBox="0 0 395.5199999999999 378.6466077922365" height="247.2" width="258.2158191514759"><g transform="matrix(1,0,0,1,0,307.5585246632469)"><svg viewBox="0 0 395.5199999999999 71.08808312898961" height="71.08808312898961" width="395.5199999999999"><g id="textblocktransform"><svg viewBox="0 0 395.5199999999999 71.08808312898961" height="71.08808312898961" width="395.5199999999999" id="textblock"><g><svg viewBox="0 0 395.5199999999999 47.666867066627546" height="47.666867066627546" width="395.5199999999999"><g transform="matrix(1,0,0,1,0,0)"><svg width="395.5199999999999" viewBox="2.15 -36.055802948608 379.32000000000005 46.055802948608" height="47.666867066627546" data-palette-color="#56aea0"><g class="wordmark-text-0" data-fill-palette-color="primary" id="text-0"><path d="M35.15-25.8L31.65-24.5Q29.75-28.25 26.6-30.03 23.45-31.8 19.6-31.8L19.6-31.8Q15.8-31.8 12.75-30.05 9.7-28.3 7.95-25.1 6.2-21.9 6.2-17.5L6.2-17.5Q6.2-13.15 7.95-9.95 9.7-6.75 12.75-5 15.8-3.25 19.6-3.25L19.6-3.25Q22.45-3.25 24.9-4.23 27.35-5.2 29.15-7.03 30.95-8.85 31.9-11.4L31.9-11.4 31.9-15.45 19.9-15.45 19.9-18.7 35.95-18.7 35.95-11.2Q34.8-7.85 32.45-5.25 30.1-2.65 26.8-1.15 23.5 0.35 19.6 0.35L19.6 0.35Q15.9 0.35 12.73-0.95 9.55-2.25 7.18-4.63 4.8-7 3.48-10.28 2.15-13.55 2.15-17.5L2.15-17.5Q2.15-21.45 3.48-24.73 4.8-28 7.18-30.38 9.55-32.75 12.73-34.05 15.9-35.35 19.6-35.35L19.6-35.35Q23.05-35.35 26.08-34.23 29.1-33.1 31.45-30.98 33.8-28.85 35.15-25.8L35.15-25.8ZM62.8-25L62.8 0 59.4 0 59.15-3.6Q58-1.7 56.05-0.68 54.1 0.35 51.5 0.35L51.5 0.35Q48.6 0.35 46.45-0.85 44.3-2.05 43.12-4.45 41.95-6.85 41.95-10.5L41.95-10.5 41.95-25 45.65-25 45.65-10.9Q45.65-7.05 47.32-5.08 49-3.1 52.15-3.1L52.15-3.1Q55.35-3.1 57.22-5.18 59.1-7.25 59.1-11.45L59.1-11.45 59.1-25 62.8-25ZM70.44 0L70.44-36 74.19-36 74.19 0 70.44 0ZM83.19-25L83.19-27.95Q83.19-30.7 84.09-32.6 84.99-34.5 86.97-35.38 88.94-36.25 92.24-36L92.24-36 92.24-32.65Q89.24-32.9 88.09-31.68 86.94-30.45 86.94-27.95L86.94-27.95 86.94-25 92.44-25 92.44-21.5 86.94-21.5 86.94 0 83.19 0 83.19-21.5 79.69-21.5 79.69-25 83.19-25Z" fill="#56aea0" data-fill-palette-color="primary"></path><path d="M110.69-35L114.69-35 114.69-3.5 131.04-3.5 131.04 0 110.69 0 110.69-35ZM155.39 0L151.94 0 151.64-4.5Q150.59-2.2 148.54-0.93 146.49 0.35 143.34 0.35L143.34 0.35Q140.64 0.35 138.74-0.5 136.84-1.35 135.81-2.93 134.79-4.5 134.79-6.65L134.79-6.65Q134.79-9.8 137.14-11.83 139.49-13.85 143.94-14.3L143.94-14.3 151.64-15.15 151.64-17.15Q151.64-19.25 150.09-20.53 148.54-21.8 145.89-21.8L145.89-21.8Q143.29-21.8 141.56-20.6 139.84-19.4 139.19-17.15L139.19-17.15 135.79-18.35Q136.79-21.65 139.46-23.5 142.14-25.35 145.99-25.35L145.99-25.35Q150.44-25.35 152.91-23.08 155.39-20.8 155.39-16.9L155.39-16.9 155.39 0ZM151.64-11.15L151.64-11.95 143.89-11.05Q141.39-10.75 140.09-9.68 138.79-8.6 138.79-6.85L138.79-6.85Q138.79-5.1 140.06-4.05 141.34-3 143.74-3L143.74-3Q146.49-3 148.24-4.1 149.99-5.2 150.81-7.08 151.64-8.95 151.64-11.15L151.64-11.15ZM162.68 0L162.68-25 166.13-25 166.33-21.45Q167.53-23.3 169.48-24.33 171.43-25.35 174.03-25.35L174.03-25.35Q176.88-25.35 179.03-24.13 181.18-22.9 182.38-20.48 183.58-18.05 183.58-14.4L183.58-14.4 183.58 0 179.83 0 179.83-13.95Q179.83-17.85 178.16-19.88 176.48-21.9 173.33-21.9L173.33-21.9Q170.08-21.9 168.26-19.75 166.43-17.6 166.43-13.4L166.43-13.4 166.43 0 162.68 0ZM210.13-19.95L210.13-19.95 209.73-19.9 209.73-36 213.48-36 213.48 0 210.03 0 209.78-4.65Q208.63-2.55 206.36-1.1 204.08 0.35 200.73 0.35L200.73 0.35Q197.28 0.35 194.71-1.23 192.13-2.8 190.71-5.7 189.28-8.6 189.28-12.5L189.28-12.5Q189.28-16.4 190.71-19.28 192.13-22.15 194.71-23.75 197.28-25.35 200.73-25.35L200.73-25.35Q204.28-25.35 206.63-23.8 208.98-22.25 210.13-19.95ZM193.33-12.5L193.33-12.5Q193.33-8.2 195.53-5.68 197.73-3.15 201.53-3.15L201.53-3.15Q203.88-3.15 205.73-4.25 207.58-5.35 208.66-7.45 209.73-9.55 209.73-12.5L209.73-12.5Q209.73-15.45 208.66-17.53 207.58-19.6 205.73-20.73 203.88-21.85 201.53-21.85L201.53-21.85Q197.78-21.85 195.56-19.33 193.33-16.8 193.33-12.5Z" fill="#61777f" data-fill-palette-color="secondary"></path><path d="M229.63-31.5L229.63-35 255.88-35 255.88-31.5 244.78-31.5 244.78 0 240.78 0 240.78-31.5 229.63-31.5ZM271.03-4.8L278.78-25 282.68-25 268.38 10 264.78 10 269.03-0.35 258.93-25 263.03-25 271.03-4.8ZM290.82-5.05L290.82-5.05 291.22-5.1 291.22 10 287.47 10 287.47-25 290.92-25 291.17-20.35Q292.32-22.45 294.57-23.9 296.82-25.35 300.22-25.35L300.22-25.35Q303.47-25.35 306.07-23.78 308.67-22.2 310.17-19.33 311.67-16.45 311.67-12.5L311.67-12.5Q311.67-8.6 310.25-5.73 308.82-2.85 306.25-1.25 303.67 0.35 300.22 0.35L300.22 0.35Q296.62 0.35 294.27-1.2 291.92-2.75 290.82-5.05ZM307.62-12.5L307.62-12.5Q307.62-16.8 305.4-19.33 303.17-21.85 299.42-21.85L299.42-21.85Q297.07-21.85 295.2-20.75 293.32-19.65 292.27-17.55 291.22-15.45 291.22-12.5L291.22-12.5Q291.22-9.6 292.27-7.5 293.32-5.4 295.2-4.28 297.07-3.15 299.42-3.15L299.42-3.15Q303.17-3.15 305.4-5.68 307.62-8.2 307.62-12.5ZM318.52 0L318.52-25 322.22-25 322.22 0 318.52 0ZM320.42-30L320.42-30Q319.27-30 318.52-30.75 317.77-31.5 317.77-32.6L317.77-32.6Q317.77-33.75 318.52-34.5 319.27-35.25 320.42-35.25L320.42-35.25Q321.47-35.25 322.25-34.5 323.02-33.75 323.02-32.6L323.02-32.6Q323.02-31.5 322.25-30.75 321.47-30 320.42-30ZM330.67 0L330.67-25 334.12-25 334.32-21.45Q335.52-23.3 337.47-24.33 339.42-25.35 342.02-25.35L342.02-25.35Q344.87-25.35 347.02-24.13 349.17-22.9 350.37-20.48 351.57-18.05 351.57-14.4L351.57-14.4 351.57 0 347.82 0 347.82-13.95Q347.82-17.85 346.14-19.88 344.47-21.9 341.32-21.9L341.32-21.9Q338.07-21.9 336.24-19.75 334.42-17.6 334.42-13.4L334.42-13.4 334.42 0 330.67 0ZM377.77-20.35L378.02-25 381.47-25 381.47-4.6Q381.47 0 379.42 3.28 377.37 6.55 373.47 8.28 369.57 10 363.97 10L363.97 10 363.37 6.55Q370.42 6.45 374.07 3.63 377.72 0.8 377.72-4.6L377.72-4.6 377.72-5.15 378.12-5.05Q376.97-2.85 374.67-1.28 372.37 0.3 368.72 0.35L368.72 0.35Q365.27 0.35 362.69-1.23 360.12-2.8 358.69-5.7 357.27-8.6 357.27-12.5L357.27-12.5Q357.27-16.4 358.69-19.28 360.12-22.15 362.69-23.75 365.27-25.35 368.72-25.35L368.72-25.35Q370.97-25.35 372.72-24.68 374.47-24 375.72-22.88 376.97-21.75 377.77-20.35L377.77-20.35ZM361.32-12.5L361.32-12.5Q361.32-8.2 363.54-5.68 365.77-3.15 369.57-3.15L369.57-3.15Q371.87-3.15 373.72-4.25 375.57-5.35 376.64-7.45 377.72-9.55 377.72-12.5L377.72-12.5Q377.72-15.45 376.64-17.53 375.57-19.6 373.72-20.73 371.87-21.85 369.57-21.85L369.57-21.85Q365.82-21.85 363.57-19.3 361.32-16.75 361.32-12.5Z" fill="#000000" data-fill-palette-color="tertiary"></path></g></svg></g></svg></g><g transform="matrix(1,0,0,1,75.54431999999997,58.91987037624871)"><svg viewBox="0 0 244.43135999999998 12.168212752740898" height="12.168212752740898" width="244.43135999999998"><g transform="matrix(1,0,0,1,0,0)"><svg width="244.43135999999998" viewBox="2.55 -36.055802948608 925.0500000000001 46.055802948608" height="12.168212752740898" data-palette-color="#61777f"><path d="M2.55-7.45L6.2-8.9Q6.5-7.55 7.48-6.23 8.45-4.9 10.18-4.03 11.9-3.15 14.6-3.15L14.6-3.15Q18.45-3.15 20.3-4.95 22.15-6.75 22.15-9.2L22.15-9.2Q22.15-11.15 21.1-12.4 20.05-13.65 18.25-14.48 16.45-15.3 14.2-15.95L14.2-15.95Q12.2-16.5 10.23-17.18 8.25-17.85 6.65-18.88 5.05-19.9 4.1-21.55 3.15-23.2 3.15-25.65L3.15-25.65Q3.15-28.6 4.55-30.78 5.95-32.95 8.5-34.15 11.05-35.35 14.45-35.35L14.45-35.35Q17.4-35.35 19.6-34.5 21.8-33.65 23.28-32.13 24.75-30.6 25.45-28.6L25.45-28.6 21.9-27.25Q21.55-28.4 20.55-29.48 19.55-30.55 17.95-31.25 16.35-31.95 14.3-31.95L14.3-31.95Q12.3-31.95 10.68-31.25 9.05-30.55 8.1-29.25 7.15-27.95 7.15-26.1L7.15-26.1Q7.15-24.1 8.28-22.93 9.4-21.75 11.28-21.03 13.15-20.3 15.4-19.65L15.4-19.65Q17.45-19 19.38-18.25 21.3-17.5 22.83-16.4 24.35-15.3 25.25-13.65 26.15-12 26.15-9.6L26.15-9.6Q26.15-6.95 24.9-4.67 23.65-2.4 21.13-1.03 18.6 0.35 14.65 0.35L14.65 0.35Q11.35 0.35 8.85-0.68 6.35-1.7 4.75-3.45 3.15-5.2 2.55-7.45L2.55-7.45ZM35.9-5.05L35.9-5.05 36.3-5.1 36.3 10 32.55 10 32.55-25 36-25 36.25-20.35Q37.4-22.45 39.65-23.9 41.9-25.35 45.3-25.35L45.3-25.35Q48.55-25.35 51.15-23.78 53.75-22.2 55.25-19.33 56.75-16.45 56.75-12.5L56.75-12.5Q56.75-8.6 55.32-5.73 53.9-2.85 51.32-1.25 48.75 0.35 45.3 0.35L45.3 0.35Q41.7 0.35 39.35-1.2 37-2.75 35.9-5.05ZM52.7-12.5L52.7-12.5Q52.7-16.8 50.47-19.33 48.25-21.85 44.5-21.85L44.5-21.85Q42.15-21.85 40.27-20.75 38.4-19.65 37.35-17.55 36.3-15.45 36.3-12.5L36.3-12.5Q36.3-9.6 37.35-7.5 38.4-5.4 40.27-4.28 42.15-3.15 44.5-3.15L44.5-3.15Q48.25-3.15 50.47-5.68 52.7-8.2 52.7-12.5ZM73.34 0.35L73.34 0.35Q69.84 0.35 67.12-1.35 64.4-3.05 62.85-6 61.3-8.95 61.3-12.75L61.3-12.75Q61.3-16.4 62.85-19.25 64.4-22.1 67.09-23.73 69.8-25.35 73.25-25.35L73.25-25.35Q76.65-25.35 79.32-23.85 82-22.35 83.5-19.7 85-17.05 84.9-13.65L84.9-13.65Q84.9-13.1 84.84-12.5 84.8-11.9 84.75-11.2L84.75-11.2 65.4-11.2Q65.5-8.85 66.55-7.05 67.59-5.25 69.32-4.23 71.05-3.2 73.25-3.2L73.25-3.2Q76.15-3.2 78.17-4.3 80.2-5.4 81.09-7.45L81.09-7.45 84.34-6.15Q82.84-3 80-1.33 77.15 0.35 73.34 0.35ZM65.45-14.45L80.8-14.45Q80.84-16.6 79.87-18.25 78.9-19.9 77.15-20.85 75.4-21.8 73.09-21.8L73.09-21.8Q71.09-21.8 69.45-20.85 67.8-19.9 66.72-18.23 65.65-16.55 65.45-14.45L65.45-14.45ZM101.54 0.35L101.54 0.35Q98.04 0.35 95.32-1.35 92.59-3.05 91.04-6 89.49-8.95 89.49-12.75L89.49-12.75Q89.49-16.4 91.04-19.25 92.59-22.1 95.29-23.73 97.99-25.35 101.44-25.35L101.44-25.35Q104.84-25.35 107.52-23.85 110.19-22.35 111.69-19.7 113.19-17.05 113.09-13.65L113.09-13.65Q113.09-13.1 113.04-12.5 112.99-11.9 112.94-11.2L112.94-11.2 93.59-11.2Q93.69-8.85 94.74-7.05 95.79-5.25 97.52-4.23 99.24-3.2 101.44-3.2L101.44-3.2Q104.34-3.2 106.37-4.3 108.39-5.4 109.29-7.45L109.29-7.45 112.54-6.15Q111.04-3 108.19-1.33 105.34 0.35 101.54 0.35ZM93.64-14.45L108.99-14.45Q109.04-16.6 108.07-18.25 107.09-19.9 105.34-20.85 103.59-21.8 101.29-21.8L101.29-21.8Q99.29-21.8 97.64-20.85 95.99-19.9 94.92-18.23 93.84-16.55 93.64-14.45L93.64-14.45ZM138.54-19.95L138.54-19.95 138.14-19.9 138.14-36 141.89-36 141.89 0 138.44 0 138.19-4.65Q137.04-2.55 134.77-1.1 132.49 0.35 129.14 0.35L129.14 0.35Q125.69 0.35 123.12-1.23 120.54-2.8 119.12-5.7 117.69-8.6 117.69-12.5L117.69-12.5Q117.69-16.4 119.12-19.28 120.54-22.15 123.12-23.75 125.69-25.35 129.14-25.35L129.14-25.35Q132.69-25.35 135.04-23.8 137.39-22.25 138.54-19.95ZM121.74-12.5L121.74-12.5Q121.74-8.2 123.94-5.68 126.14-3.15 129.94-3.15L129.94-3.15Q132.29-3.15 134.14-4.25 135.99-5.35 137.07-7.45 138.14-9.55 138.14-12.5L138.14-12.5Q138.14-15.45 137.07-17.53 135.99-19.6 134.14-20.73 132.29-21.85 129.94-21.85L129.94-21.85Q126.19-21.85 123.97-19.33 121.74-16.8 121.74-12.5ZM150.29 0L150.29-25 153.99-25 153.99 0 150.29 0ZM152.19-30L152.19-30Q151.04-30 150.29-30.75 149.54-31.5 149.54-32.6L149.54-32.6Q149.54-33.75 150.29-34.5 151.04-35.25 152.19-35.25L152.19-35.25Q153.24-35.25 154.01-34.5 154.79-33.75 154.79-32.6L154.79-32.6Q154.79-31.5 154.01-30.75 153.24-30 152.19-30ZM162.44 0L162.44-25 165.89-25 166.09-21.45Q167.29-23.3 169.24-24.33 171.19-25.35 173.79-25.35L173.79-25.35Q176.64-25.35 178.79-24.13 180.94-22.9 182.14-20.48 183.34-18.05 183.34-14.4L183.34-14.4 183.34 0 179.59 0 179.59-13.95Q179.59-17.85 177.91-19.88 176.24-21.9 173.09-21.9L173.09-21.9Q169.84-21.9 168.01-19.75 166.19-17.6 166.19-13.4L166.19-13.4 166.19 0 162.44 0ZM209.53-20.35L209.78-25 213.23-25 213.23-4.6Q213.23 0 211.18 3.28 209.13 6.55 205.23 8.28 201.33 10 195.73 10L195.73 10 195.13 6.55Q202.18 6.45 205.83 3.63 209.48 0.8 209.48-4.6L209.48-4.6 209.48-5.15 209.88-5.05Q208.73-2.85 206.43-1.28 204.13 0.3 200.48 0.35L200.48 0.35Q197.03 0.35 194.46-1.23 191.88-2.8 190.46-5.7 189.03-8.6 189.03-12.5L189.03-12.5Q189.03-16.4 190.46-19.28 191.88-22.15 194.46-23.75 197.03-25.35 200.48-25.35L200.48-25.35Q202.73-25.35 204.48-24.68 206.23-24 207.48-22.88 208.73-21.75 209.53-20.35L209.53-20.35ZM193.08-12.5L193.08-12.5Q193.08-8.2 195.31-5.68 197.53-3.15 201.33-3.15L201.33-3.15Q203.63-3.15 205.48-4.25 207.33-5.35 208.41-7.45 209.48-9.55 209.48-12.5L209.48-12.5Q209.48-15.45 208.41-17.53 207.33-19.6 205.48-20.73 203.63-21.85 201.33-21.85L201.33-21.85Q197.58-21.85 195.33-19.3 193.08-16.75 193.08-12.5ZM233.58-7.45L237.23-8.9Q237.53-7.55 238.5-6.23 239.48-4.9 241.2-4.03 242.93-3.15 245.63-3.15L245.63-3.15Q249.48-3.15 251.33-4.95 253.18-6.75 253.18-9.2L253.18-9.2Q253.18-11.15 252.13-12.4 251.08-13.65 249.28-14.48 247.48-15.3 245.23-15.95L245.23-15.95Q243.23-16.5 241.25-17.18 239.28-17.85 237.68-18.88 236.08-19.9 235.13-21.55 234.18-23.2 234.18-25.65L234.18-25.65Q234.18-28.6 235.58-30.78 236.98-32.95 239.53-34.15 242.08-35.35 245.48-35.35L245.48-35.35Q248.43-35.35 250.63-34.5 252.83-33.65 254.3-32.13 255.78-30.6 256.48-28.6L256.48-28.6 252.93-27.25Q252.58-28.4 251.58-29.48 250.58-30.55 248.98-31.25 247.38-31.95 245.33-31.95L245.33-31.95Q243.33-31.95 241.7-31.25 240.08-30.55 239.13-29.25 238.18-27.95 238.18-26.1L238.18-26.1Q238.18-24.1 239.3-22.93 240.43-21.75 242.3-21.03 244.18-20.3 246.43-19.65L246.43-19.65Q248.48-19 250.4-18.25 252.33-17.5 253.85-16.4 255.38-15.3 256.28-13.65 257.18-12 257.18-9.6L257.18-9.6Q257.18-6.95 255.93-4.67 254.68-2.4 252.15-1.03 249.63 0.35 245.68 0.35L245.68 0.35Q242.38 0.35 239.88-0.68 237.38-1.7 235.78-3.45 234.18-5.2 233.58-7.45L233.58-7.45ZM274.38 0.35L274.38 0.35Q270.83 0.35 268.03-1.2 265.23-2.75 263.63-5.63 262.03-8.5 262.03-12.45L262.03-12.45Q262.03-16.45 263.65-19.35 265.28-22.25 268.1-23.8 270.93-25.35 274.48-25.35L274.48-25.35Q278.03-25.35 280.85-23.8 283.68-22.25 285.3-19.38 286.93-16.5 286.93-12.55L286.93-12.55Q286.93-8.55 285.28-5.65 283.63-2.75 280.78-1.2 277.93 0.35 274.38 0.35ZM274.33-3.2L274.33-3.2Q276.53-3.2 278.48-4.17 280.43-5.15 281.65-7.23 282.88-9.3 282.88-12.5L282.88-12.5Q282.88-15.75 281.68-17.8 280.48-19.85 278.55-20.83 276.63-21.8 274.43-21.8L274.43-21.8Q272.23-21.8 270.33-20.83 268.43-19.85 267.25-17.78 266.08-15.7 266.08-12.5L266.08-12.5Q266.08-9.25 267.23-7.2 268.38-5.15 270.25-4.17 272.13-3.2 274.33-3.2ZM293.07 0L293.07-36 296.82-36 296.82 0 293.07 0ZM324.92-25L324.92 0 321.52 0 321.27-3.6Q320.12-1.7 318.17-0.68 316.22 0.35 313.62 0.35L313.62 0.35Q310.72 0.35 308.57-0.85 306.42-2.05 305.25-4.45 304.07-6.85 304.07-10.5L304.07-10.5 304.07-25 307.77-25 307.77-10.9Q307.77-7.05 309.45-5.08 311.12-3.1 314.27-3.1L314.27-3.1Q317.47-3.1 319.35-5.18 321.22-7.25 321.22-11.45L321.22-11.45 321.22-25 324.92-25ZM330.42-25L334.17-25 334.17-32 337.92-32 337.92-25 344.57-25 344.57-21.5 337.92-21.5 337.92-8.05Q337.92-5.75 338.89-4.7 339.87-3.65 341.39-3.45 342.92-3.25 344.57-3.45L344.57-3.45 344.57-0.2Q342.62 0.25 340.74 0.05 338.87-0.15 337.39-1.07 335.92-2 335.04-3.7 334.17-5.4 334.17-8.05L334.17-8.05 334.17-21.5 330.42-21.5 330.42-25ZM350.92 0L350.92-25 354.62-25 354.62 0 350.92 0ZM352.82-30L352.82-30Q351.67-30 350.92-30.75 350.17-31.5 350.17-32.6L350.17-32.6Q350.17-33.75 350.92-34.5 351.67-35.25 352.82-35.25L352.82-35.25Q353.87-35.25 354.64-34.5 355.42-33.75 355.42-32.6L355.42-32.6Q355.42-31.5 354.64-30.75 353.87-30 352.82-30ZM373.86 0.35L373.86 0.35Q370.31 0.35 367.51-1.2 364.71-2.75 363.11-5.63 361.51-8.5 361.51-12.45L361.51-12.45Q361.51-16.45 363.14-19.35 364.76-22.25 367.59-23.8 370.41-25.35 373.96-25.35L373.96-25.35Q377.51-25.35 380.34-23.8 383.16-22.25 384.79-19.38 386.41-16.5 386.41-12.55L386.41-12.55Q386.41-8.55 384.76-5.65 383.11-2.75 380.26-1.2 377.41 0.35 373.86 0.35ZM373.81-3.2L373.81-3.2Q376.01-3.2 377.96-4.17 379.91-5.15 381.14-7.23 382.36-9.3 382.36-12.5L382.36-12.5Q382.36-15.75 381.16-17.8 379.96-19.85 378.04-20.83 376.11-21.8 373.91-21.8L373.91-21.8Q371.71-21.8 369.81-20.83 367.91-19.85 366.74-17.78 365.56-15.7 365.56-12.5L365.56-12.5Q365.56-9.25 366.71-7.2 367.86-5.15 369.74-4.17 371.61-3.2 373.81-3.2ZM392.56 0L392.56-25 396.01-25 396.21-21.45Q397.41-23.3 399.36-24.33 401.31-25.35 403.91-25.35L403.91-25.35Q406.76-25.35 408.91-24.13 411.06-22.9 412.26-20.48 413.46-18.05 413.46-14.4L413.46-14.4 413.46 0 409.71 0 409.71-13.95Q409.71-17.85 408.04-19.88 406.36-21.9 403.21-21.9L403.21-21.9Q399.96-21.9 398.14-19.75 396.31-17.6 396.31-13.4L396.31-13.4 396.31 0 392.56 0ZM419.16-6.45L422.76-7.65Q423.06-6.15 423.86-5.18 424.66-4.2 425.93-3.7 427.21-3.2 428.91-3.2L428.91-3.2Q431.56-3.2 432.93-4.23 434.31-5.25 434.31-6.8L434.31-6.8Q434.31-8.1 433.48-8.9 432.66-9.7 431.31-10.23 429.96-10.75 428.31-11.15L428.31-11.15Q427.01-11.45 425.51-11.88 424.01-12.3 422.66-13.05 421.31-13.8 420.46-15 419.61-16.2 419.61-18.15L419.61-18.15Q419.61-20.3 420.78-21.93 421.96-23.55 424.03-24.45 426.11-25.35 428.81-25.35L428.81-25.35Q431.91-25.35 434.33-24 436.76-22.65 437.71-19.8L437.71-19.8 434.21-18.6Q433.86-19.9 432.93-20.6 432.01-21.3 430.88-21.55 429.76-21.8 428.66-21.8L428.66-21.8Q426.41-21.8 425.03-20.93 423.66-20.05 423.66-18.3L423.66-18.3Q423.66-17.35 424.11-16.73 424.56-16.1 425.36-15.7 426.16-15.3 427.26-15.03 428.36-14.75 429.66-14.4L429.66-14.4Q431.11-14.05 432.61-13.53 434.11-13 435.41-12.18 436.71-11.35 437.53-10.08 438.36-8.8 438.36-6.9L438.36-6.9Q438.36-4.7 437.16-3.08 435.96-1.45 433.83-0.55 431.71 0.35 428.91 0.35L428.91 0.35Q425.06 0.35 422.53-1.38 420.01-3.1 419.16-6.45L419.16-6.45ZM442.51 7.25L446.21-6.05 450.61-6.05 445.21 7.25 442.51 7.25ZM470.35-7.45L474-8.9Q474.3-7.55 475.28-6.23 476.25-4.9 477.98-4.03 479.7-3.15 482.4-3.15L482.4-3.15Q486.25-3.15 488.1-4.95 489.95-6.75 489.95-9.2L489.95-9.2Q489.95-11.15 488.9-12.4 487.85-13.65 486.05-14.48 484.25-15.3 482-15.95L482-15.95Q480-16.5 478.03-17.18 476.05-17.85 474.45-18.88 472.85-19.9 471.9-21.55 470.95-23.2 470.95-25.65L470.95-25.65Q470.95-28.6 472.35-30.78 473.75-32.95 476.3-34.15 478.85-35.35 482.25-35.35L482.25-35.35Q485.2-35.35 487.4-34.5 489.6-33.65 491.08-32.13 492.55-30.6 493.25-28.6L493.25-28.6 489.7-27.25Q489.35-28.4 488.35-29.48 487.35-30.55 485.75-31.25 484.15-31.95 482.1-31.95L482.1-31.95Q480.1-31.95 478.48-31.25 476.85-30.55 475.9-29.25 474.95-27.95 474.95-26.1L474.95-26.1Q474.95-24.1 476.08-22.93 477.2-21.75 479.08-21.03 480.95-20.3 483.2-19.65L483.2-19.65Q485.25-19 487.18-18.25 489.1-17.5 490.63-16.4 492.15-15.3 493.05-13.65 493.95-12 493.95-9.6L493.95-9.6Q493.95-6.95 492.7-4.67 491.45-2.4 488.93-1.03 486.4 0.35 482.45 0.35L482.45 0.35Q479.15 0.35 476.65-0.68 474.15-1.7 472.55-3.45 470.95-5.2 470.35-7.45L470.35-7.45ZM501.1 0L501.1-25 504.8-25 504.8 0 501.1 0ZM503-30L503-30Q501.85-30 501.1-30.75 500.35-31.5 500.35-32.6L500.35-32.6Q500.35-33.75 501.1-34.5 501.85-35.25 503-35.25L503-35.25Q504.05-35.25 504.82-34.5 505.6-33.75 505.6-32.6L505.6-32.6Q505.6-31.5 504.82-30.75 504.05-30 503-30ZM513.25 0L513.25-25 516.7-25 516.95-21.4Q518.05-23.2 519.92-24.28 521.8-25.35 524.39-25.35L524.39-25.35Q527.05-25.35 529.22-24.08 531.39-22.8 532.6-20.3L532.6-20.3Q533.75-22.85 536.1-24.1 538.45-25.35 541.3-25.35L541.3-25.35Q544.1-25.35 546.25-24.13 548.39-22.9 549.6-20.48 550.8-18.05 550.8-14.4L550.8-14.4 550.8 0 547.05 0 547.05-13.95Q547.05-17.85 545.37-19.88 543.7-21.9 540.6-21.9L540.6-21.9Q537.45-21.9 535.6-19.73 533.75-17.55 533.75-13.3L533.75-13.3 533.75 0 530 0 530-13.95Q530-17.85 528.39-19.88 526.8-21.9 523.7-21.9L523.7-21.9Q520.55-21.9 518.77-19.73 517-17.55 517-13.3L517-13.3 517 0 513.25 0ZM561.39-5.05L561.39-5.05 561.79-5.1 561.79 10 558.04 10 558.04-25 561.49-25 561.74-20.35Q562.89-22.45 565.14-23.9 567.39-25.35 570.79-25.35L570.79-25.35Q574.04-25.35 576.64-23.78 579.24-22.2 580.74-19.33 582.24-16.45 582.24-12.5L582.24-12.5Q582.24-8.6 580.82-5.73 579.39-2.85 576.82-1.25 574.24 0.35 570.79 0.35L570.79 0.35Q567.19 0.35 564.84-1.2 562.49-2.75 561.39-5.05ZM578.19-12.5L578.19-12.5Q578.19-16.8 575.97-19.33 573.74-21.85 569.99-21.85L569.99-21.85Q567.64-21.85 565.77-20.75 563.89-19.65 562.84-17.55 561.79-15.45 561.79-12.5L561.79-12.5Q561.79-9.6 562.84-7.5 563.89-5.4 565.77-4.28 567.64-3.15 569.99-3.15L569.99-3.15Q573.74-3.15 575.97-5.68 578.19-8.2 578.19-12.5ZM588.34 0L588.34-36 592.09-36 592.09 0 588.34 0ZM600.49 0L600.49-25 604.19-25 604.19 0 600.49 0ZM602.39-30L602.39-30Q601.24-30 600.49-30.75 599.74-31.5 599.74-32.6L599.74-32.6Q599.74-33.75 600.49-34.5 601.24-35.25 602.39-35.25L602.39-35.25Q603.44-35.25 604.21-34.5 604.99-33.75 604.99-32.6L604.99-32.6Q604.99-31.5 604.21-30.75 603.44-30 602.39-30ZM613.98-25L613.98-27.95Q613.98-30.7 614.88-32.6 615.78-34.5 617.76-35.38 619.73-36.25 623.03-36L623.03-36 623.03-32.65Q620.03-32.9 618.88-31.68 617.73-30.45 617.73-27.95L617.73-27.95 617.73-25 623.23-25 623.23-21.5 617.73-21.5 617.73 0 613.98 0 613.98-21.5 610.48-21.5 610.48-25 613.98-25ZM638.03-4.8L645.78-25 649.68-25 635.38 10 631.78 10 636.03-0.35 625.93-25 630.03-25 638.03-4.8ZM655.23 0L655.23-25 658.93-25 658.93 0 655.23 0ZM657.13-30L657.13-30Q655.98-30 655.23-30.75 654.48-31.5 654.48-32.6L654.48-32.6Q654.48-33.75 655.23-34.5 655.98-35.25 657.13-35.25L657.13-35.25Q658.18-35.25 658.95-34.5 659.73-33.75 659.73-32.6L659.73-32.6Q659.73-31.5 658.95-30.75 658.18-30 657.13-30ZM667.38 0L667.38-25 670.83-25 671.03-21.45Q672.23-23.3 674.18-24.33 676.13-25.35 678.73-25.35L678.73-25.35Q681.58-25.35 683.73-24.13 685.88-22.9 687.08-20.48 688.28-18.05 688.28-14.4L688.28-14.4 688.28 0 684.53 0 684.53-13.95Q684.53-17.85 682.85-19.88 681.18-21.9 678.03-21.9L678.03-21.9Q674.78-21.9 672.95-19.75 671.13-17.6 671.13-13.4L671.13-13.4 671.13 0 667.38 0ZM714.47-20.35L714.72-25 718.17-25 718.17-4.6Q718.17 0 716.12 3.28 714.07 6.55 710.17 8.28 706.27 10 700.67 10L700.67 10 700.07 6.55Q707.12 6.45 710.77 3.63 714.42 0.8 714.42-4.6L714.42-4.6 714.42-5.15 714.82-5.05Q713.67-2.85 711.37-1.28 709.07 0.3 705.42 0.35L705.42 0.35Q701.97 0.35 699.4-1.23 696.82-2.8 695.4-5.7 693.97-8.6 693.97-12.5L693.97-12.5Q693.97-16.4 695.4-19.28 696.82-22.15 699.4-23.75 701.97-25.35 705.42-25.35L705.42-25.35Q707.67-25.35 709.42-24.68 711.17-24 712.42-22.88 713.67-21.75 714.47-20.35L714.47-20.35ZM698.02-12.5L698.02-12.5Q698.02-8.2 700.25-5.68 702.47-3.15 706.27-3.15L706.27-3.15Q708.57-3.15 710.42-4.25 712.27-5.35 713.35-7.45 714.42-9.55 714.42-12.5L714.42-12.5Q714.42-15.45 713.35-17.53 712.27-19.6 710.42-20.73 708.57-21.85 706.27-21.85L706.27-21.85Q702.52-21.85 700.27-19.3 698.02-16.75 698.02-12.5ZM738.52-7.45L742.17-8.9Q742.47-7.55 743.44-6.23 744.42-4.9 746.14-4.03 747.87-3.15 750.57-3.15L750.57-3.15Q754.42-3.15 756.27-4.95 758.12-6.75 758.12-9.2L758.12-9.2Q758.12-11.15 757.07-12.4 756.02-13.65 754.22-14.48 752.42-15.3 750.17-15.95L750.17-15.95Q748.17-16.5 746.19-17.18 744.22-17.85 742.62-18.88 741.02-19.9 740.07-21.55 739.12-23.2 739.12-25.65L739.12-25.65Q739.12-28.6 740.52-30.78 741.92-32.95 744.47-34.15 747.02-35.35 750.42-35.35L750.42-35.35Q753.37-35.35 755.57-34.5 757.77-33.65 759.24-32.13 760.72-30.6 761.42-28.6L761.42-28.6 757.87-27.25Q757.52-28.4 756.52-29.48 755.52-30.55 753.92-31.25 752.32-31.95 750.27-31.95L750.27-31.95Q748.27-31.95 746.64-31.25 745.02-30.55 744.07-29.25 743.12-27.95 743.12-26.1L743.12-26.1Q743.12-24.1 744.24-22.93 745.37-21.75 747.24-21.03 749.12-20.3 751.37-19.65L751.37-19.65Q753.42-19 755.34-18.25 757.27-17.5 758.79-16.4 760.32-15.3 761.22-13.65 762.12-12 762.12-9.6L762.12-9.6Q762.12-6.95 760.87-4.67 759.62-2.4 757.09-1.03 754.57 0.35 750.62 0.35L750.62 0.35Q747.32 0.35 744.82-0.68 742.32-1.7 740.72-3.45 739.12-5.2 738.52-7.45L738.52-7.45ZM779.02 0.35L779.02 0.35Q775.52 0.35 772.79-1.35 770.07-3.05 768.52-6 766.97-8.95 766.97-12.75L766.97-12.75Q766.97-16.4 768.52-19.25 770.07-22.1 772.77-23.73 775.47-25.35 778.92-25.35L778.92-25.35Q782.32-25.35 784.99-23.85 787.67-22.35 789.17-19.7 790.67-17.05 790.57-13.65L790.57-13.65Q790.57-13.1 790.52-12.5 790.47-11.9 790.42-11.2L790.42-11.2 771.07-11.2Q771.17-8.85 772.22-7.05 773.27-5.25 774.99-4.23 776.72-3.2 778.92-3.2L778.92-3.2Q781.82-3.2 783.84-4.3 785.87-5.4 786.77-7.45L786.77-7.45 790.02-6.15Q788.52-3 785.67-1.33 782.82 0.35 779.02 0.35ZM771.12-14.45L786.47-14.45Q786.52-16.6 785.54-18.25 784.57-19.9 782.82-20.85 781.07-21.8 778.77-21.8L778.77-21.8Q776.77-21.8 775.12-20.85 773.47-19.9 772.39-18.23 771.32-16.55 771.12-14.45L771.12-14.45ZM796.71 0L796.71-25 800.16-25 800.36-21.35Q801.36-22.7 802.79-23.65 804.21-24.6 805.94-24.98 807.66-25.35 809.61-25L809.61-25 809.61-21.25Q807.51-21.65 805.84-21.25 804.16-20.85 802.96-19.75 801.76-18.65 801.11-16.98 800.46-15.3 800.46-13.1L800.46-13.1 800.46 0 796.71 0ZM812.16-25L816.16-25 824.06-4.2 832.01-25 835.96-25 825.96 0 822.06 0 812.16-25ZM841.81 0L841.81-25 845.51-25 845.51 0 841.81 0ZM843.71-30L843.71-30Q842.56-30 841.81-30.75 841.06-31.5 841.06-32.6L841.06-32.6Q841.06-33.75 841.81-34.5 842.56-35.25 843.71-35.25L843.71-35.25Q844.76-35.25 845.53-34.5 846.31-33.75 846.31-32.6L846.31-32.6Q846.31-31.5 845.53-30.75 844.76-30 843.71-30ZM864.61 0.35L864.61 0.35Q860.96 0.35 858.21-1.25 855.46-2.85 853.93-5.73 852.41-8.6 852.41-12.4L852.41-12.4Q852.41-16.25 853.93-19.18 855.46-22.1 858.21-23.73 860.96-25.35 864.61-25.35L864.61-25.35Q868.46-25.35 871.36-23.58 874.26-21.8 875.56-18.65L875.56-18.65 872.11-17.45Q871.36-19.45 869.38-20.63 867.41-21.8 864.81-21.8L864.81-21.8Q862.26-21.8 860.38-20.65 858.51-19.5 857.48-17.4 856.46-15.3 856.46-12.45L856.46-12.45Q856.46-8.25 858.71-5.73 860.96-3.2 864.71-3.2L864.71-3.2Q867.26-3.2 869.26-4.35 871.26-5.5 872.21-7.45L872.21-7.45 875.61-6.25Q874.26-3.15 871.36-1.4 868.46 0.35 864.61 0.35ZM892.25 0.35L892.25 0.35Q888.75 0.35 886.03-1.35 883.3-3.05 881.75-6 880.2-8.95 880.2-12.75L880.2-12.75Q880.2-16.4 881.75-19.25 883.3-22.1 886-23.73 888.7-25.35 892.15-25.35L892.15-25.35Q895.55-25.35 898.23-23.85 900.9-22.35 902.4-19.7 903.9-17.05 903.8-13.65L903.8-13.65Q903.8-13.1 903.75-12.5 903.7-11.9 903.65-11.2L903.65-11.2 884.3-11.2Q884.4-8.85 885.45-7.05 886.5-5.25 888.23-4.23 889.95-3.2 892.15-3.2L892.15-3.2Q895.05-3.2 897.08-4.3 899.1-5.4 900-7.45L900-7.45 903.25-6.15Q901.75-3 898.9-1.33 896.05 0.35 892.25 0.35ZM884.35-14.45L899.7-14.45Q899.75-16.6 898.78-18.25 897.8-19.9 896.05-20.85 894.3-21.8 892-21.8L892-21.8Q890-21.8 888.35-20.85 886.7-19.9 885.63-18.23 884.55-16.55 884.35-14.45L884.35-14.45ZM908.4-6.45L912-7.65Q912.3-6.15 913.1-5.18 913.9-4.2 915.18-3.7 916.45-3.2 918.15-3.2L918.15-3.2Q920.8-3.2 922.18-4.23 923.55-5.25 923.55-6.8L923.55-6.8Q923.55-8.1 922.73-8.9 921.9-9.7 920.55-10.23 919.2-10.75 917.55-11.15L917.55-11.15Q916.25-11.45 914.75-11.88 913.25-12.3 911.9-13.05 910.55-13.8 909.7-15 908.85-16.2 908.85-18.15L908.85-18.15Q908.85-20.3 910.03-21.93 911.2-23.55 913.28-24.45 915.35-25.35 918.05-25.35L918.05-25.35Q921.15-25.35 923.58-24 926-22.65 926.95-19.8L926.95-19.8 923.45-18.6Q923.1-19.9 922.18-20.6 921.25-21.3 920.13-21.55 919-21.8 917.9-21.8L917.9-21.8Q915.65-21.8 914.28-20.93 912.9-20.05 912.9-18.3L912.9-18.3Q912.9-17.35 913.35-16.73 913.8-16.1 914.6-15.7 915.4-15.3 916.5-15.03 917.6-14.75 918.9-14.4L918.9-14.4Q920.35-14.05 921.85-13.53 923.35-13 924.65-12.18 925.95-11.35 926.78-10.08 927.6-8.8 927.6-6.9L927.6-6.9Q927.6-4.7 926.4-3.08 925.2-1.45 923.08-0.55 920.95 0.35 918.15 0.35L918.15 0.35Q914.3 0.35 911.78-1.38 909.25-3.1 908.4-6.45L908.4-6.45Z" opacity="1" transform="matrix(1,0,0,1,0,0)" fill="#61777f" class="slogan-text-1" data-fill-palette-color="secondary" id="text-1"></path></svg></g></svg></g></svg></g></svg></g><g transform="matrix(1,0,0,1,55.233740977997684,0)"><svg viewBox="0 0 285.05251804400456 285.05251804400456" height="285.05251804400456" width="285.05251804400456"><g><svg></svg></g><g id="icon-0"><svg viewBox="0 0 285.05251804400456 285.05251804400456" height="285.05251804400456" width="285.05251804400456"><g><path d="M0 142.526c0-78.715 63.811-142.526 142.526-142.526 78.715 0 142.526 63.811 142.527 142.526 0 78.715-63.811 142.526-142.527 142.527-78.715 0-142.526-63.811-142.526-142.527zM142.526 280.754c76.341 0 138.228-61.887 138.228-138.228 0-76.341-61.887-138.228-138.228-138.227-76.341 0-138.228 61.887-138.227 138.227 0 76.341 61.887 138.228 138.227 138.228z" data-fill-palette-color="accent" fill="#61777f" stroke="transparent"></path></g><g transform="matrix(1,0,0,1,57.50869050407637,58.9573813205255)"><svg viewBox="0 0 170.03513703585182 167.13775540295356" height="167.13775540295356" width="170.03513703585182"><g><svg xmlns="http://www.w3.org/2000/svg" xmlns:xlink="http://www.w3.org/1999/xlink" version="1.1" x="0" y="0" viewBox="-345.9993836358223 257.9479943277313 99.75176572719312 98.0520056722687" enable-background="new -346 256 100 100" xml:space="preserve" height="167.13775540295356" width="170.03513703585182" class="icon-dxe-0" data-fill-palette-color="accent" id="dxe-0"><path d="M-246.455 327.152L-263.315 262.698S-264.558 257.942-269.317 257.948L-342.277 258.028S-347.036 258.032-345.792 262.789L-329.957 323.327C-322.809 307.643-314.754 290.026-314.162 288.728L-313.739 287.804-291.899 287.783-292.947 290.036C-298.932 302.906-306.715 319.811-312.183 331.98L-249.971 331.913C-249.97 331.912-245.211 331.906-246.455 327.152" fill="#61777f" data-fill-palette-color="accent"></path><path d="M-296.864 290.954L-311.703 290.969C-320.797 310.861-337.461 347.365-338.128 349.043-339.722 353.05-337.782 355.278-336.957 356H-280.781L-282.656 351.196H-317.793C-317.837 351.198-317.9 351.201-317.977 351.201-319.965 351.201-321.975 349.997-321.983 347.307-321.985 346.678-321.987 345.728-308.834 316.938A5465 5465 0 0 1-296.864 290.954" fill="#61777f" data-fill-palette-color="accent"></path></svg></g></svg></g></svg></g></svg></g><g></g></svg></g><defs></defs></svg><rect width="258.2158191514759" height="247.2" fill="none" stroke="none" visibility="hidden"></rect></g></svg></g></svg>